<svg width="64" height="64" viewBox="0 0 64 64" fill="none" xmlns="http://www.w3.org/2000/svg">
<rect width="64" height="64" rx="16" fill="#8697FF"/>
<path d="M50 34C51.5 30.5 44 21 37 18C33 16 29 16.5 28 18C26 21 34 24 40 27C39 27.5 38 28.5 37 30C35 28 31 26 26 27.5C22.5 28.5 19.5 31.5 18 35.5C17.7 35.3 17.3 35.2 16.8 35.2C15.3 35.2 14 36.5 14 38C14 39.5 15.3 40.8 16.8 40.8C17.2 40.8 18 40.6 18 40.6L32 40.8C27 48 23 49 23 50.5C23 52 27 51.5 29 50.8C36 48.5 43 41.5 44 39C49 39.8 49 36.5 50 34Z" fill="white"/>
</svg>
