<svg xmlns="http://www.w3.org/2000/svg" viewBox="0 0 32 32">
  <!-- dark rounded background -->
  <rect width="32" height="32" rx="7" fill="#111827"/>
  <!-- iUSD coin scaled to fit 32x32: original viewBox 0 0 48 48, scale=32/48=0.667, offset=(0,0) -->
  <g transform="translate(0,0) scale(0.667)">
    <!-- coin circle -->
    <circle cx="24" cy="24" r="24" fill="#F5F5F5"/>
    <!-- outer left arc -->
    <path d="M16.2494 7.90193C10.2661 10.7882 6.13706 16.9119 6.13706 23.9999C6.13735 31.0874 10.2665 37.2096 16.2494 40.096V41.8214C9.66284 38.9534 4.97254 32.5462 4.59018 24.9987L4.56494 23.9999C4.56494 16.022 9.37369 9.16888 16.2494 6.17477V7.90193Z" fill="#222323"/>
    <!-- outer right arc -->
    <path d="M31.7506 6.17657C38.6257 9.17083 43.4333 16.0222 43.4333 23.9999L43.4081 24.9987C43.0257 32.5458 38.3364 38.9514 31.7506 41.8196V40.0978C37.7342 37.2116 41.8627 31.0878 41.863 23.9999C41.863 16.9115 37.7347 10.7862 31.7506 7.90013V6.17657Z" fill="#222323"/>
    <!-- center S body -->
    <path d="M28.4402 16.8819C27.1477 16.3161 25.5848 16.1655 24.0925 16.1655H23.7816C21.9895 16.1655 20.3577 16.4039 19.1503 17.1147C17.864 17.8723 17.1512 19.1125 17.1511 20.8163V20.9139C17.1512 22.0879 17.4563 23.1727 18.398 23.9491C19.2893 24.6838 20.6087 25.0172 22.3253 25.0975L22.3316 25.0983L25.78 25.2334C27.229 25.3015 27.9498 25.4827 28.312 25.7209C28.5537 25.88 28.7199 26.1178 28.7199 26.8342V27.0085C28.7199 27.4411 28.6271 27.744 28.4894 27.9671C28.3517 28.19 28.1332 28.3915 27.7886 28.5647C27.0629 28.9295 25.893 29.1124 24.2089 29.1124C23.0542 29.1124 21.9662 29.0154 21.1089 28.7233C20.2684 28.4369 19.7441 28 19.5112 27.36L19.3082 26.803H16.3792L16.6316 27.8475C17.0409 29.545 18.2074 30.5613 19.5995 31.1288C20.9587 31.6828 22.5781 31.8343 24.073 31.8343H24.2863C26.1561 31.8343 27.9548 31.6384 29.3073 30.9225C30.0013 30.5551 30.5925 30.0433 31.0042 29.346C31.415 28.6502 31.6159 27.8228 31.6159 26.8725V26.6983C31.6159 25.5165 31.3119 24.4289 30.3675 23.6538C29.4754 22.9217 28.1555 22.5941 26.4417 22.5139H26.4355L22.9871 22.378C21.5378 22.3099 20.8171 22.1288 20.455 21.8905C20.2134 21.7315 20.0473 21.4943 20.0472 20.778V20.7194C20.0472 20.3509 20.1195 20.0939 20.2253 19.9061C20.3291 19.7219 20.4946 19.5519 20.7683 19.4014C21.3536 19.0797 22.3561 18.8874 23.9371 18.8874C25.2002 18.8874 26.228 19.0001 26.9816 19.2897C27.6941 19.5636 28.1179 19.9736 28.3089 20.6124L28.4894 21.2163H31.4058L31.1902 20.1952C30.8338 18.5084 29.7796 17.4683 28.4402 16.8819Z" fill="#222323"/>
    <!-- top pin -->
    <path d="M27.9041 6.93125C26.4843 7.2102 25.4454 8.45348 25.4215 9.92764V11.3519H22.582V9.92043C22.5581 8.45402 21.5176 7.21038 20.0976 6.93125V4.04663C21.5592 4.19542 22.9134 4.88601 23.8909 5.98293L24.0008 6.11093L24.1126 5.98293C25.1042 4.88308 26.4525 4.19809 27.9041 4.04663V6.93125Z" fill="#222323"/>
    <!-- bottom pin -->
    <path d="M27.9041 41.0688C26.4843 40.7898 25.4454 39.5465 25.4215 38.0724V36.6481H22.582V38.0796C22.5581 39.546 21.5177 40.7896 20.0976 41.0688V43.9534C21.5593 43.8046 22.9135 43.114 23.8909 42.0171L24.0009 41.8891L24.1126 42.0171C25.1042 43.1169 26.4525 43.8019 27.9041 43.9534V41.0688Z" fill="#222323"/>
  </g>
</svg>
